<svg width="128" height="128" viewBox="0 0 128 128" xmlns="http://www.w3.org/2000/svg" fill="none">

  <defs>
    <mask id="folder-cutout" maskUnits="userSpaceOnUse" x="0" y="0" width="128" height="128">
      <rect width="128" height="128" fill="white"/>
      <circle cx="92" cy="84" r="22" fill="none" stroke="black" stroke-width="5"/>
      <path d="M92 72V88" stroke="black" stroke-width="6" stroke-linecap="round"/>
      <path d="M84 84L92 92L100 84" stroke="black" stroke-width="6" stroke-linecap="round" stroke-linejoin="round"/>
      <path d="M33 44L45 56" stroke="black" stroke-width="5.5" stroke-linecap="round"/>
      <path d="M45 56H58" stroke="black" stroke-width="5.5" stroke-linecap="round"/>
      <path d="M45 56V69" stroke="black" stroke-width="5.5" stroke-linecap="round"/>
      <circle cx="33" cy="44" r="5.2" fill="black"/>
      <circle cx="45" cy="56" r="5.2" fill="black"/>
      <circle cx="58" cy="56" r="5.2" fill="black"/>
      <circle cx="45" cy="69" r="5.2" fill="black"/>
    </mask>
  </defs>

  <g transform="translate(64 65) scale(1.25) translate(-64 -65)">
    <path
      mask="url(#folder-cutout)"
      d="M16 38C16 31.3726 21.3726 26 28 26H50L60 36H100C106.627 36 112 41.3726 112 48V92C112 98.6274 106.627 104 100 104H28C21.3726 104 16 98.6274 16 92V38Z"
      fill="#2563EB"/>
  </g>

</svg>
